<svg width="34" height="34" viewBox="0 0 34 34" fill="none" xmlns="http://www.w3.org/2000/svg">
<path d="M16.6304 21.4804C19.6931 21.4804 22.1738 18.9997 22.1738 15.937V8.31494C22.1738 5.25225 19.6931 2.77161 16.6304 2.77161C13.5677 2.77161 11.0871 5.25225 11.0871 8.31494V15.937C11.0871 18.9997 13.5677 21.4804 16.6304 21.4804Z" stroke="#616161" stroke-width="2.0787" stroke-linecap="round" stroke-linejoin="round"/>
<path d="M6.0285 13.3733V15.7292C6.0285 21.5774 10.7819 26.3308 16.6301 26.3308C22.4783 26.3308 27.2318 21.5774 27.2318 15.7292V13.3733" stroke="#616161" stroke-width="2.0787" stroke-linecap="round" stroke-linejoin="round"/>
<path d="M14.7039 8.91073C15.9511 8.45342 17.3092 8.45342 18.5564 8.91073" stroke="#616161" stroke-width="2.0787" stroke-linecap="round" stroke-linejoin="round"/>
<path d="M15.5215 11.8488C16.256 11.6547 17.0181 11.6547 17.7526 11.8488" stroke="#616161" stroke-width="2.0787" stroke-linecap="round" stroke-linejoin="round"/>
<path d="M16.6301 26.3308V30.4882" stroke="#616161" stroke-width="2.0787" stroke-linecap="round" stroke-linejoin="round"/>
</svg>
